<svg width="39" height="38" viewBox="0 0 39 38" fill="none" xmlns="http://www.w3.org/2000/svg">
<circle cx="19.6802" cy="19" r="19" fill="white"/>
<path d="M10.6802 18C10.6802 14.229 10.6802 12.343 11.8522 11.172C13.0232 10 14.9092 10 18.6802 10H20.6802C24.4512 10 26.3372 10 27.5082 11.172C28.6802 12.343 28.6802 14.229 28.6802 18V20C28.6802 23.771 28.6802 25.657 27.5082 26.828C26.3372 28 24.4512 28 20.6802 28H18.6802C14.9092 28 13.0232 28 11.8522 26.828C10.6802 25.657 10.6802 23.771 10.6802 20V18Z" stroke="#2B2B2B" stroke-width="2"/>
<path d="M24.1802 16C25.0086 16 25.6802 15.3284 25.6802 14.5C25.6802 13.6716 25.0086 13 24.1802 13C23.3517 13 22.6802 13.6716 22.6802 14.5C22.6802 15.3284 23.3517 16 24.1802 16Z" fill="#2B2B2B"/>
<path d="M19.6802 22C21.337 22 22.6802 20.6569 22.6802 19C22.6802 17.3431 21.337 16 19.6802 16C18.0233 16 16.6802 17.3431 16.6802 19C16.6802 20.6569 18.0233 22 19.6802 22Z" stroke="#2B2B2B" stroke-width="2"/>
</svg>
