<svg width="38" height="38" viewBox="0 0 38 38" fill="none" xmlns="http://www.w3.org/2000/svg">
<rect width="37.68" height="38" rx="18.84" fill="white"/>
<path d="M23.44 12.82C22.7564 12.0396 22.3797 11.0374 22.38 10H19.29V22.4C19.2662 23.071 18.9829 23.7066 18.4998 24.1729C18.0167 24.6393 17.3714 24.8999 16.7 24.9C15.28 24.9 14.1 23.74 14.1 22.3C14.1 20.58 15.76 19.29 17.47 19.82V16.66C14.02 16.2 11 18.88 11 22.3C11 25.63 13.76 28 16.69 28C19.83 28 22.38 25.45 22.38 22.3V16.01C23.633 16.9099 25.1374 17.3926 26.68 17.39V14.3C26.68 14.3 24.8 14.39 23.44 12.82Z" fill="#2B2B2B"/>
</svg>
